<svg id="Layer_1" data-name="Layer 1" xmlns="http://www.w3.org/2000/svg" viewBox="0 0 492 492"><defs><style>.cls-1{fill:none;}.cls-2,.cls-3{fill:#fff;}.cls-3,.cls-4,.cls-5{fill-rule:evenodd;}.cls-4{fill:#ff967f;}.cls-5{fill:#dce1e4;}.cls-6{fill:#f9f9f9;}</style></defs><title>emogiMuerte</title><circle class="cls-1" cx="246.26" cy="246.74" r="178.56" transform="translate(-102.34 246.4) rotate(-45)"/><path class="cls-2" d="M246.26,65.78a181,181,0,1,1-128,53,180.39,180.39,0,0,1,128-53Zm124.56,56.4a176.14,176.14,0,1,0,51.6,124.56A175.57,175.57,0,0,0,370.82,122.18Z"/><polygon class="cls-3" points="318.79 195.56 343.52 170.83 335.38 162.69 310.65 187.42 285.92 162.69 277.77 170.83 302.5 195.56 277.77 220.29 285.92 228.43 310.65 203.71 335.38 228.43 343.52 220.29 318.79 195.56"/><path class="cls-2" d="M317.1,193.86l23-23-4.75-4.75-23,23a2.39,2.39,0,0,1-3.39,0l-23-23-4.75,4.75,23,23a2.4,2.4,0,0,1,0,3.4l-23,23,4.75,4.75,23-23a2.39,2.39,0,0,1,3.39,0l23,23,4.75-4.75-23-23a2.4,2.4,0,0,1,0-3.4Zm28.12-21.33-23,23,23,23a2.41,2.41,0,0,1,0,3.39l-8.15,8.15a2.39,2.39,0,0,1-3.39,0l-23-23-23,23a2.4,2.4,0,0,1-3.4,0L276.08,222a2.39,2.39,0,0,1,0-3.39l23-23-23-23a2.39,2.39,0,0,1,0-3.39l8.14-8.15a2.42,2.42,0,0,1,3.4,0l23,23,23-23a2.41,2.41,0,0,1,3.39,0l8.15,8.15A2.41,2.41,0,0,1,345.22,172.53Z"/><polygon class="cls-3" points="214.75 220.29 190.02 195.56 214.75 170.83 206.6 162.69 181.87 187.42 157.15 162.69 149 170.83 173.73 195.56 149 220.29 157.15 228.43 181.87 203.71 206.6 228.43 214.75 220.29"/><path class="cls-2" d="M211.35,220.29l-23-23a2.4,2.4,0,0,1,0-3.4l23-23-4.75-4.75-23,23a2.39,2.39,0,0,1-3.39,0l-23-23-4.76,4.75,23,23a2.4,2.4,0,0,1,0,3.4l-23,23,4.76,4.75,23-23a2.39,2.39,0,0,1,3.39,0l23,23,4.75-4.75Zm-17.94-24.73,23,23a2.39,2.39,0,0,1,0,3.39l-8.14,8.15a2.4,2.4,0,0,1-3.4,0l-23-23-23,23a2.39,2.39,0,0,1-3.39,0L147.3,222a2.41,2.41,0,0,1,0-3.39l23-23-23-23a2.41,2.41,0,0,1,0-3.39l8.15-8.15a2.41,2.41,0,0,1,3.39,0l23,23,23-23a2.42,2.42,0,0,1,3.4,0l8.14,8.15a2.39,2.39,0,0,1,0,3.39Z"/><path class="cls-4" d="M193.42,333h38.7v24.63a19.41,19.41,0,0,1-19.35,19.35h0a19.4,19.4,0,0,1-19.35-19.35Z"/><path class="cls-2" d="M193.42,330.56h38.7a2.41,2.41,0,0,1,2.4,2.4v24.63a21.75,21.75,0,0,1-43.5,0V333a2.4,2.4,0,0,1,2.4-2.4Zm36.3,4.8h-33.9v22.23a17,17,0,0,0,33.9,0Z"/><path class="cls-5" d="M321.8,348.74c-39.56-57.4-113.92-57.4-153.48,0Z"/><path class="cls-6" d="M317.13,346.34a101.67,101.67,0,0,0-23.51-22.82,84.13,84.13,0,0,0-97.12,0A101.46,101.46,0,0,0,173,346.34Zm-20.8-26.76a107.61,107.61,0,0,1,27.33,27.64,2.37,2.37,0,0,1,.54,1.52,2.39,2.39,0,0,1-2.4,2.4H168.32a2.35,2.35,0,0,1-1.36-.42,2.39,2.39,0,0,1-.61-3.33,107.58,107.58,0,0,1,27.44-27.8,88.83,88.83,0,0,1,102.54,0Z"/></svg>